<svg xmlns="http://www.w3.org/2000/svg" width="2778" height="710" viewBox="0 0 2778 710" version="1.1"><path d="M 579.534 54.963 C 528.403 84.667, 485.326 110.214, 483.806 111.735 L 481.043 114.500 559.272 158.979 C 602.297 183.443, 647.762 209.273, 660.304 216.379 L 683.109 229.300 686.804 225.693 C 688.935 223.613, 729.398 199.513, 782.380 168.767 C 832.914 139.441, 874.162 115.009, 874.043 114.474 C 873.924 113.938, 830.312 88.433, 777.127 57.796 C 709.163 18.645, 679.250 1.923, 676.464 1.525 C 672.668 0.981, 668.564 3.244, 579.534 54.963 M 881.500 123.570 C 879.850 124.426, 838 148.550, 788.500 177.179 C 693.794 231.953, 692.213 232.976, 687.417 242.638 C 685.545 246.410, 685.500 251.800, 685.500 474.669 L 685.500 702.839 687.924 705.419 C 689.433 707.025, 691.427 708, 693.204 708 C 697.270 708, 880.896 601.990, 886.339 596.500 C 888.521 594.300, 891.329 590.250, 892.580 587.500 L 894.854 582.500 895.037 357 C 895.138 232.975, 895.171 130.467, 895.110 129.205 C 894.954 125.955, 890.659 121.999, 887.295 122.006 C 885.758 122.010, 883.150 122.713, 881.500 123.570 M 474.636 127.070 C 474.286 128.819, 474 155.410, 474 186.161 L 474 242.071 469.255 244.105 C 459.493 248.290, 425.832 259.287, 407 264.445 C 385.095 270.445, 354.879 277.316, 329.500 282.068 C 320.150 283.819, 312.129 285.589, 311.675 286.001 C 310.720 286.868, 317.649 287.660, 338 289.009 C 367.565 290.969, 395.920 290.015, 444 285.444 C 510.272 279.143, 545.020 273.959, 608.126 260.960 C 626.900 257.092, 642.448 254.115, 642.677 254.343 C 643.736 255.402, 590.795 273.113, 558.500 282.503 C 452.271 313.392, 345.892 330.356, 166.500 345.016 C 124.326 348.462, 124 348.503, 124 350.340 C 124 351.802, 143.195 353.172, 191 355.121 C 222.128 356.391, 314.595 355.730, 341.500 354.046 C 457.211 346.802, 559.413 330.887, 655.500 305.148 L 673.500 300.326 674.084 273.413 C 674.538 252.527, 675.018 245.586, 676.230 242.419 L 677.792 238.339 578.146 181.724 C 523.341 150.586, 477.774 124.835, 476.886 124.500 C 475.674 124.042, 475.114 124.682, 474.636 127.070 M 791.590 193.051 C 746.539 218.873, 709.354 240, 708.956 240 C 707.292 240, 701.032 248.166, 699.996 251.688 C 699.379 253.785, 699.015 259.108, 699.187 263.517 L 699.500 271.535 779.500 225.231 C 823.500 199.763, 860.737 178.256, 862.250 177.437 L 865 175.949 864.956 202.724 L 864.913 229.500 781.969 277.500 L 699.025 325.500 699.012 339.857 C 699.002 351.733, 699.241 354.121, 700.395 353.679 C 701.163 353.384, 737.500 332.700, 781.145 307.714 C 824.790 282.729, 861.513 261.756, 862.750 261.108 L 865 259.930 865 286.824 L 865 313.718 782 361.518 L 699 409.318 699 424.244 L 699 439.171 703.250 436.782 C 705.587 435.468, 742.159 414.305, 784.521 389.753 C 826.882 365.201, 862.327 344.812, 863.287 344.443 C 864.925 343.815, 865.016 345.445, 864.766 370.955 L 864.500 398.137 781.750 445.806 L 699 493.476 699 508.280 L 699 523.084 703.250 520.605 C 746.352 495.459, 863.590 428, 864.189 428 C 864.635 428, 865 440.106, 865 454.902 L 865 481.803 782 530.054 L 699 578.305 699 592.711 C 699 600.635, 699.382 606.882, 699.849 606.593 C 703.821 604.138, 864.298 512, 864.602 512 C 864.821 512, 864.995 524.263, 864.989 539.250 L 864.977 566.500 782.008 614.500 L 699.040 662.500 699.020 669.867 C 699.001 677.007, 699.070 677.220, 701.287 676.796 C 703.722 676.331, 862.319 585.395, 867.647 581.410 C 869.377 580.115, 871.965 576.705, 873.397 573.832 L 876 568.607 876 514.054 C 875.999 404.613, 874.653 146.001, 874.084 146.051 C 873.763 146.079, 836.640 167.229, 791.590 193.051 M 775 239.868 C 725.163 268.726, 711.016 277.354, 709.250 279.967 C 707.243 282.936, 707 284.527, 707 294.679 C 707 307.465, 707.604 308.513, 713.385 305.756 C 718.893 303.130, 837.398 233.916, 839.388 232.163 C 842.711 229.236, 844 224.472, 844 215.114 C 844 204.649, 843.536 202.983, 840.643 203.049 C 839.464 203.076, 809.925 219.644, 775 239.868 M 787.500 239.969 C 749.158 262.410, 746.500 264.145, 746.500 266.733 C 746.500 272.427, 749.477 271.101, 790.802 246.997 C 812.636 234.261, 831.394 222.971, 832.486 221.907 C 834.045 220.388, 834.238 219.599, 833.384 218.236 C 832.785 217.281, 831.442 216.381, 830.398 216.237 C 829.354 216.092, 810.050 226.771, 787.500 239.969 M 737.223 268.557 C 734.310 270.597, 734.383 273.762, 737.374 275.124 C 742.071 277.265, 746.374 271.774, 742.800 268.200 C 741.203 266.603, 739.892 266.687, 737.223 268.557 M 725.447 276.059 C 724.024 277.631, 723.834 278.517, 724.643 279.809 C 727.379 284.180, 735.460 280.597, 733.045 276.083 C 731.613 273.408, 727.857 273.395, 725.447 276.059 M 715.223 281.557 C 712.777 283.269, 712.340 285.940, 714.200 287.800 C 715.933 289.533, 718.440 289.276, 720.345 287.171 C 722.548 284.737, 722.437 282.304, 720.066 281.035 C 717.634 279.734, 717.860 279.710, 715.223 281.557 M 777.094 318.794 C 736.670 342.220, 712.929 356.553, 711.594 358.338 C 709.811 360.723, 709.458 362.801, 709.219 372.320 C 708.895 385.203, 709.525 386.995, 713.807 385.379 C 717.343 384.044, 835.191 315.658, 839.751 312.295 C 845.173 308.295, 846.104 305.354, 845.784 293.235 C 845.503 282.595, 845.478 282.498, 843 282.275 C 841.275 282.120, 820.837 293.445, 777.094 318.794 M 1989 295.110 C 1989 295.720, 2012.963 335.768, 2042.250 384.104 L 2095.500 471.989 2124 471.745 L 2152.500 471.500 2205.678 384 C 2234.926 335.875, 2258.889 295.930, 2258.928 295.234 C 2258.985 294.236, 2253.062 294.025, 2230.871 294.234 L 2202.741 294.500 2163.621 360.225 C 2142.104 396.373, 2124.275 425.947, 2124 425.944 C 2123.725 425.942, 2105.788 396.253, 2084.140 359.970 L 2044.780 294 2016.890 294 C 1997.122 294, 1989 294.323, 1989 295.110 M 2274 383 L 2274 472 2298.500 472 L 2323 472 2323 444.545 L 2323 417.089 2392.250 416.760 C 2469.849 416.391, 2465.805 416.748, 2481.966 408.835 C 2497.565 401.196, 2510.635 385.133, 2514.463 368.897 C 2519.007 349.620, 2513.241 329.311, 2499.187 315.094 C 2488.053 303.831, 2474.873 297.319, 2458.678 295.081 C 2453.557 294.373, 2420.312 294, 2362.428 294 L 2274 294 2274 383 M 2589.500 294.975 C 2571.601 297.763, 2554.880 308.162, 2545.971 322.045 C 2536.199 337.273, 2536.551 359.713, 2546.812 375.588 C 2551.859 383.396, 2560.819 391.289, 2569.500 395.572 C 2582.226 401.851, 2583.685 401.963, 2652.790 401.983 C 2712.850 401.999, 2715.218 402.071, 2718.956 403.977 C 2724.459 406.785, 2727.345 411.248, 2727.430 417.082 C 2727.517 422.990, 2725.090 426.628, 2718.980 429.750 L 2714.576 432 2655.748 432 C 2598.506 432, 2596.813 431.945, 2592.921 429.960 C 2588.747 427.830, 2585.498 423.544, 2584.454 418.790 L 2583.841 416 2560.822 416 L 2537.804 416 2538.523 422.194 C 2541.003 443.565, 2556.521 461.611, 2579 469.266 C 2585.420 471.453, 2586.333 471.484, 2653.500 471.780 C 2728.438 472.110, 2731.029 471.944, 2743.500 465.981 C 2756.125 459.945, 2768.466 447.148, 2773.067 435.324 C 2776.455 426.615, 2776.952 410.494, 2774.120 401.169 C 2768.997 384.302, 2753.642 369.841, 2734 363.385 C 2729.003 361.742, 2722.643 361.528, 2664.500 361.039 C 2594.947 360.453, 2597.613 360.693, 2593.950 354.686 C 2590.021 348.243, 2592.493 339.892, 2599.283 336.670 C 2602.435 335.174, 2608.409 335, 2656.467 335 C 2694.174 335, 2710.781 335.334, 2712.316 336.122 C 2716.401 338.221, 2719.973 342.341, 2720.599 345.675 L 2721.223 349 2745.240 349 L 2769.258 349 2768.552 342.755 C 2766.111 321.180, 2750.090 303.279, 2726.955 296.276 C 2722.166 294.826, 2713.749 294.599, 2658 294.410 C 2623.075 294.292, 2592.250 294.546, 2589.500 294.975 M 788.972 322.595 C 766.712 335.572, 747.916 346.671, 747.202 347.258 C 745.519 348.641, 746.043 352.009, 748.145 353.327 C 749.459 354.150, 758.169 349.472, 791.298 330.154 C 826.885 309.402, 834 304.793, 834 302.490 C 834 301.844, 830.862 299, 830.150 299 C 829.761 299, 811.231 309.618, 788.972 322.595 M 658.500 307.659 C 577.451 339.029, 473.156 364.441, 372 377.467 C 290.192 388.001, 148.753 395.984, 43.719 395.996 C 7.887 395.999, 2.865 396.187, 2.345 397.543 C 2.019 398.392, 2.025 399.358, 2.357 399.690 C 3.797 401.130, 53.107 408.497, 87.500 412.411 C 140.741 418.469, 181.432 420.935, 240.500 421.683 C 327.694 422.787, 405.246 417.849, 495.873 405.423 C 542.927 398.972, 607.078 387.539, 652.615 377.490 C 661.270 375.580, 668.507 374.173, 668.697 374.364 C 669.661 375.328, 622.770 393.389, 594.141 403.081 C 537.369 422.299, 490.851 433.575, 417.500 445.898 C 394.431 449.773, 263.341 470.118, 232.500 474.609 C 227.780 475.296, 227.668 475.379, 230.500 476.093 C 235.512 477.357, 288.483 479.007, 323.500 478.989 C 410.886 478.947, 498.165 472.144, 573.489 459.505 C 587.782 457.106, 599.567 455.234, 599.678 455.344 C 600.216 455.883, 549.062 474.377, 523 483.066 C 457.376 504.945, 398.650 519.109, 340.866 526.995 C 333.131 528.051, 332.285 528.373, 332.733 530.087 C 333.220 531.948, 335.140 532, 403.722 532 L 474.210 532 474.068 545.750 C 473.828 568.973, 474.648 580.748, 476.702 583.550 C 478.584 586.117, 672.929 699.966, 674.250 699.275 C 675.171 698.793, 675.253 350.456, 674.339 322.250 C 673.978 311.113, 673.416 302.054, 673.091 302.120 C 672.766 302.186, 666.200 304.678, 658.500 307.659 M 2323 356.035 L 2323 377.070 2386.750 376.785 L 2450.500 376.500 2455.449 374 C 2458.171 372.625, 2461.758 369.787, 2463.419 367.694 C 2465.967 364.484, 2466.501 362.824, 2466.824 357.107 C 2467.276 349.117, 2465.045 343.621, 2459.759 339.696 C 2453.460 335.019, 2453.165 335, 2386.351 335 L 2323 335 2323 356.035 M 736.626 352.517 C 733.722 355.421, 735.352 359, 739.578 359 C 744.539 359, 745.743 351.760, 740.876 351.196 C 739.424 351.027, 737.525 351.618, 736.626 352.517 M 726.937 358.340 C 722.069 360.757, 724.209 366.917, 729.458 365.600 C 732.101 364.936, 734.493 361.606, 733.491 359.985 C 732.161 357.834, 729.367 357.133, 726.937 358.340 M 714.088 365.394 C 713.405 366.217, 712.994 367.927, 713.173 369.195 C 713.441 371.084, 714.112 371.500, 716.891 371.500 C 720.952 371.500, 723.108 368.987, 721.394 366.250 C 719.973 363.981, 715.678 363.478, 714.088 365.394 M 777 405.958 C 738.657 428.203, 712.708 443.856, 711.500 445.469 C 709.884 447.628, 709.434 450.055, 709.155 458.122 C 708.741 470.069, 709.307 473, 712.024 473 C 714.822 473, 837.741 401.455, 842 397.347 L 845.500 393.972 845.500 381.736 L 845.500 369.500 843 369.309 C 841.308 369.180, 819.970 381.029, 777 405.958 M 788.972 407.595 C 766.712 420.572, 747.916 431.671, 747.202 432.258 C 745.519 433.641, 746.043 437.009, 748.145 438.327 C 749.459 439.150, 758.169 434.472, 791.298 415.154 C 826.885 394.402, 834 389.793, 834 387.490 C 834 386.844, 830.862 384, 830.150 384 C 829.761 384, 811.231 394.618, 788.972 407.595 M 736.626 437.517 C 733.722 440.421, 735.352 444, 739.578 444 C 744.539 444, 745.743 436.760, 740.876 436.196 C 739.424 436.027, 737.525 436.618, 736.626 437.517 M 726.223 443.557 C 723.661 445.351, 723.335 448.203, 725.487 449.989 C 727.511 451.669, 731.675 450.475, 733.104 447.805 C 734.091 445.961, 733.928 445.360, 732.022 443.817 C 729.295 441.608, 729.022 441.596, 726.223 443.557 M 714.088 450.394 C 713.405 451.217, 712.994 452.927, 713.173 454.195 C 713.441 456.084, 714.112 456.500, 716.891 456.500 C 720.952 456.500, 723.108 453.987, 721.394 451.250 C 719.973 448.981, 715.678 448.478, 714.088 450.394 M 774.500 488.374 C 718.110 521.127, 710.290 525.960, 708.735 529.024 C 707.305 531.838, 707.020 534.593, 707.235 543.500 C 707.498 554.419, 707.518 554.502, 710 554.753 C 711.755 554.930, 731.131 544.154, 775 518.602 C 809.375 498.580, 838.674 481.062, 840.110 479.674 C 843.258 476.630, 844 473.346, 844 462.457 C 844 452.653, 843.502 450.966, 840.643 451.100 C 839.464 451.156, 809.700 467.929, 774.500 488.374 M 789.925 490.825 C 743.239 518.268, 745.800 516.606, 746.189 519.211 C 747.015 524.748, 748.143 524.248, 790.616 499.498 C 828.409 477.476, 834 473.917, 834 471.880 C 834 470.677, 830.953 467.994, 829.679 468.075 C 829.030 468.116, 811.141 478.354, 789.925 490.825 M 735.860 522.408 C 734.447 525.509, 736.068 528, 739.500 528 C 742.378 528, 744.245 525.758, 743.827 522.805 C 743.574 521.021, 742.767 520.429, 740.257 520.187 C 737.602 519.931, 736.805 520.333, 735.860 522.408 M 726.223 527.557 C 723.485 529.474, 723.346 532.579, 725.934 533.965 C 728.682 535.435, 729.731 535.269, 732 533 C 734.411 530.589, 734.487 529.630, 732.429 527.571 C 730.451 525.594, 729.029 525.591, 726.223 527.557 M 714.088 534.394 C 713.405 535.217, 712.994 536.927, 713.173 538.195 C 713.441 540.084, 714.112 540.500, 716.891 540.500 C 720.952 540.500, 723.108 537.987, 721.394 535.250 C 719.973 532.981, 715.678 532.478, 714.088 534.394 M 775.504 574.556 C 740.856 594.621, 711.381 612.164, 710.004 613.539 C 707.656 615.884, 707.483 616.771, 707.220 627.770 C 706.901 641.140, 707.513 643, 711.708 641.416 C 715.323 640.052, 836.896 569.345, 839.388 567.157 C 842.710 564.241, 844 559.474, 844 550.114 C 844 539.652, 843.537 537.987, 840.643 538.037 C 839.464 538.057, 810.152 554.491, 775.504 574.556 M 787 576.935 C 748.568 599.530, 746.500 600.892, 746.500 603.623 C 746.500 605.819, 747.017 606.574, 748.684 606.811 C 750.846 607.119, 828.220 562.817, 832.486 558.829 C 834.942 556.533, 833.567 553.599, 829.899 553.312 C 828.344 553.190, 813.254 561.499, 787 576.935 M 736.567 605.926 C 733.110 609.745, 735.978 612.975, 741.579 611.570 C 743.438 611.103, 744 610.294, 744 608.088 C 744 603.796, 739.642 602.528, 736.567 605.926 M 725.571 612.571 C 723.692 614.450, 723.570 616.170, 725.200 617.800 C 728.475 621.075, 735.059 616.848, 732.917 612.845 C 731.709 610.588, 727.704 610.439, 725.571 612.571 M 714.750 618.080 C 712.330 619.489, 712.521 623.673, 715.067 625.036 C 716.675 625.896, 717.675 625.788, 719.567 624.548 C 725.012 620.980, 720.401 614.789, 714.750 618.080" stroke="none" fill="#2497dc" fill-rule="evenodd"/><path d="M 949 294.532 C 949 294.824, 973.150 334.881, 1002.666 383.547 L 1056.333 472.030 1084.766 471.765 L 1113.199 471.500 1166.595 383.500 C 1195.963 335.100, 1219.993 295.163, 1219.995 294.750 C 1219.998 294.337, 1207.431 294, 1192.068 294 L 1164.136 294 1162.247 296.750 C 1161.207 298.262, 1143.784 327.400, 1123.528 361.500 C 1103.272 395.600, 1086.188 424.063, 1085.564 424.750 C 1084.691 425.711, 1075.285 410.709, 1044.964 360.001 L 1005.500 294.001 977.250 294.001 C 961.712 294, 949 294.239, 949 294.532 M 1235 383 L 1235 472 1340 472 L 1445 472 1445 452 L 1445 432 1364.500 432 L 1284 432 1284 363 L 1284 294 1259.500 294 L 1235 294 1235 383 M 1514.402 294.997 C 1492.852 298.157, 1473.519 314.393, 1468.538 333.515 C 1466.273 342.212, 1466.269 423.771, 1468.533 432.465 C 1473.326 450.867, 1490.308 466.256, 1510.500 470.496 C 1520.868 472.672, 1665.132 472.672, 1675.500 470.496 C 1694.739 466.456, 1711.109 452.488, 1716.960 435.119 C 1719.011 429.029, 1719.065 427.452, 1718.787 381.119 L 1718.500 333.392 1714.783 325.946 C 1710.058 316.482, 1704.832 310.462, 1696.282 304.632 C 1688.491 299.321, 1680.933 296.416, 1671.272 295.019 C 1663.385 293.878, 1522.166 293.859, 1514.402 294.997 M 1742 314.500 L 1742 335 1787.500 335 L 1833 335 1833 403.500 L 1833 472 1857.500 472 L 1882 472 1882 403.500 L 1882 335 1928 335 L 1974 335 1974 314.500 L 1974 294 1858 294 L 1742 294 1742 314.500 M 1528.500 336.866 C 1522.622 339.543, 1517.283 345.912, 1516.508 351.172 C 1516.157 353.552, 1516.011 369.525, 1516.185 386.666 L 1516.500 417.832 1519.509 422.111 C 1521.329 424.700, 1524.479 427.400, 1527.481 428.945 L 1532.443 431.500 1589.875 431.789 C 1628.688 431.984, 1649.017 431.723, 1652.581 430.983 C 1659.576 429.531, 1665.664 425.014, 1668.125 419.450 C 1669.955 415.314, 1670.059 412.944, 1669.788 381.603 L 1669.500 348.169 1666.500 343.911 C 1664.850 341.569, 1661.517 338.606, 1659.093 337.327 L 1654.685 335 1593.593 335.022 C 1536.651 335.042, 1532.228 335.168, 1528.500 336.866" stroke="none" fill="#fcfcfc" fill-rule="evenodd"/></svg>